<?xml version="1.0" encoding="UTF-8"?>
<svg width="383px" height="397px" viewBox="0 0 383 397" version="1.1" xmlns="http://www.w3.org/2000/svg" xmlns:xlink="http://www.w3.org/1999/xlink">
    <!-- Generator: Sketch 41.2 (35397) - http://www.bohemiancoding.com/sketch -->
    <title>mute</title>
    <desc>Created with Sketch.</desc>
    <defs></defs>
    <g id="Page-1" stroke="none" stroke-width="1" fill="none" fill-rule="evenodd">
        <g id="mute" fill="#000000">
            <path d="M382.986394,198.037168 C383.645872,226.603221 360.234402,248.348679 333.838008,248.348679 C307.286166,248.348679 284.581279,227.404535 284.692762,199.170006 C284.739868,184.730645 291.428859,172.725078 297.678199,165.813353 C304.61842,158.130168 315.185771,151.766793 329.88271,150.556966 C351.221535,148.781506 367.677083,160.15702 375.637925,173.166586 C379.217948,179.009892 382.78227,189.536956 382.986394,198.037168 Z" id="Shape"></path>
            <path d="M237.771012,9.04812834 C239.759028,14.0106952 238.925344,22.4812834 238.925344,31.7540107 L238.925344,364.973262 C238.925344,381.197861 240.795789,396.716578 225.084049,396.139037 C218.425263,395.903743 211.606154,388.074866 206.625425,383.44385 C170.969393,350.386096 137.408259,319.380749 101.645344,286.482353 C98.7808907,283.851337 96.0233198,280.193583 93.1802429,279.551872 C86.5107692,278.04385 77.5860729,279.551872 69.7302024,279.551872 C46.2267206,279.551872 23.9630769,279.509091 0.128259109,279.551872 L0.128259109,120.257754 L72.4236437,120.257754 C80.3115789,120.257754 88.9583806,121.551872 96.2584615,120.257754 C100.768907,119.455615 108.603401,110.214973 112.793198,106.011765 C128.44081,90.3540107 143.917409,75.6481283 159.31919,60.2256684 C174.635466,44.9101604 189.641781,30.0652406 206.240648,14.8245989 C211.884049,9.63743316 217.538138,1.46631016 225.084049,0.974331551 C231.860405,0.524064171 236.402915,5.64705882 237.771012,9.04812834 Z" id="Shape"></path>
        </g>
    </g>
</svg>