<?xml version="1.0" encoding="UTF-8"?>
<svg width="336px" height="401px" viewBox="0 0 336 401" version="1.1" xmlns="http://www.w3.org/2000/svg" xmlns:xlink="http://www.w3.org/1999/xlink">
    <!-- Generator: Sketch 41.2 (35397) - http://www.bohemiancoding.com/sketch -->
    <title>play</title>
    <desc>Created with Sketch.</desc>
    <defs></defs>
    <g id="Page-1" stroke="none" stroke-width="1" fill="none" fill-rule="evenodd">
        <g id="play" fill="#000000">
            <path d="M331.810769,192.210511 C337.722,200.165833 336.786154,213.090538 330.776923,220.193196 C327.211231,224.419866 318.855385,228.192715 312.48,231.942927 C243.481538,272.625024 174.255846,314.686906 105.323077,355.325884 C86.7246154,366.288707 68.3953846,377.865965 49.0538462,389.184513 C42.9261538,392.77411 35.6461538,398.196234 30.0569231,399.899406 C16.4230769,404.081879 5.44923077,394.78989 2.44461538,386.768812 C0.495384615,381.605398 1.05538462,373.176852 1.05538462,364.649134 L1.05538462,107.189887 L1.05538462,60.1909624 C1.05538462,46.0697258 -1.17384615,26.2460968 2.44461538,14.9167688 C5.04,6.78897312 11.5876923,1.55010215 19.6969231,0.407467742 C23.8,-0.174629032 27.9353846,0.418247312 30.7461538,1.44230645 C36.96,3.69523656 43.4969231,8.71851613 50.0876923,12.8470914 C120.292308,56.8385161 187.104615,99.5579516 257.234923,143.818866 C276.015385,155.676392 294.356462,167.02728 313.859538,179.413005 C320.696923,183.770108 328.332308,187.521398 331.810769,192.210511 Z" id="Shape"></path>
        </g>
    </g>
</svg>