<?xml version="1.0" encoding="UTF-8"?>
<svg width="528px" height="397px" viewBox="0 0 528 397" version="1.1" xmlns="http://www.w3.org/2000/svg" xmlns:xlink="http://www.w3.org/1999/xlink">
    <!-- Generator: Sketch 41.2 (35397) - http://www.bohemiancoding.com/sketch -->
    <title>sound</title>
    <desc>Created with Sketch.</desc>
    <defs></defs>
    <g id="Page-1" stroke="none" stroke-width="1" fill="none" fill-rule="evenodd">
        <g id="sound" fill="#000000">
            <path d="M495.411498,79.9465241 C515.088583,112.802139 528.30996,153.229947 527.32664,203.080214 C526.354008,252.299465 509.637571,290.395722 489.255061,321.582888 C468.241943,353.743316 440.751741,378.065241 408.120486,397.006417 C399.815709,381.337968 390.335223,366.835294 381.966316,351.219251 C429.95553,320.737968 471.105328,276.395722 474.644211,201.540107 C476.471903,162.716578 464.126964,130.224599 449.259595,105.722995 C433.696421,80.0545455 413.164275,60.8245989 389.277085,44.5465241 C398.597247,29.626738 407.853279,14.6534759 417.729231,0.289839572 C418.060567,0.225668449 418.092632,0.439572193 418.114008,0.67486631 C449.900891,20.7058824 475.713036,47.0481283 495.411498,79.9465241 Z" id="Shape"></path>
            <path d="M409.659595,133.048128 C420.294413,151.037433 428.619498,175.475936 427.348664,202.31016 C424.772794,256.480214 395.711417,288.673797 360.440162,310.812834 C351.675789,295.603209 342.963789,280.331551 333.901215,265.411765 C354.401296,251.593583 372.85885,233.13262 374.280389,200.770053 C375.74468,167.336898 357.050915,147.240642 337.363142,132.663102 C346.608486,117.668449 355.90834,102.737968 365.815287,88.4064171 L366.585911,88.4064171 C383.53749,100.278075 398.586559,114.320856 409.659595,133.048128 Z" id="Shape"></path>
            <path d="M326.601134,198.459893 C327.05004,217.904813 311.113846,232.706952 293.145814,232.706952 C275.071968,232.706952 259.616745,218.450267 259.692632,199.231016 C259.724696,189.402139 264.277895,181.229947 268.531822,176.525134 C273.256032,171.295187 280.449231,166.963636 290.453441,166.140107 C304.978785,164.931551 316.180081,172.674866 321.599028,181.530481 C324.035951,185.508021 326.462186,192.673797 326.601134,198.459893 Z" id="Shape"></path>
            <path d="M237.771012,9.04812834 C239.759028,14.0106952 238.925344,22.4812834 238.925344,31.7540107 L238.925344,364.973262 C238.925344,381.197861 240.795789,396.716578 225.084049,396.139037 C218.425263,395.903743 211.606154,388.074866 206.625425,383.44385 C170.969393,350.386096 137.408259,319.380749 101.645344,286.482353 C98.7808907,283.851337 96.0233198,280.193583 93.1802429,279.551872 C86.5107692,278.04385 77.5860729,279.551872 69.7302024,279.551872 C46.2267206,279.551872 23.9630769,279.509091 0.128259109,279.551872 L0.128259109,120.257754 L72.4236437,120.257754 C80.3115789,120.257754 88.9583806,121.551872 96.2584615,120.257754 C100.768907,119.455615 108.603401,110.214973 112.793198,106.011765 C128.44081,90.3540107 143.917409,75.6481283 159.31919,60.2256684 C174.635466,44.9101604 189.641781,30.0652406 206.240648,14.8245989 C211.884049,9.63743316 217.538138,1.46631016 225.084049,0.974331551 C231.860405,0.524064171 236.402915,5.64705882 237.771012,9.04812834 Z" id="Shape"></path>
        </g>
    </g>
</svg>