<svg xmlns="http://www.w3.org/2000/svg" viewBox="0 0 185.65 130.48"><defs><style>.cls-1{isolation:isolate;}.cls-2{fill:#00aeef;}.cls-3{opacity:0.52;}.cls-4{opacity:0.25;}.cls-4,.cls-6{mix-blend-mode:multiply;}.cls-5{fill:#231f20;}.cls-6{fill:#b1b3b5;}</style></defs><title>logo_tmf</title><g class="cls-1"><g id="Layer_1" data-name="Layer 1"><path class="cls-2" d="M43.76,86.84a5.27,5.27,0,0,0,5-4.43A3.76,3.76,0,0,0,45,78a5.27,5.27,0,0,0-5,4.43,4,4,0,0,0,.58,2.75H36.66l0.55-3.92c0.46-3.26,1.79-4,4.23-4a6.47,6.47,0,0,1,2.42.51l1.26-6.46a17.79,17.79,0,0,0-4.41-.46c-8.29,0-10.31,4.58-11.07,10L29,85.16H24l-0.86,6.1h5l-2.62,18.62h7.63l2.62-18.62h3.51L36,114.92h7.63L47.1,90.19H41.6l0.52-3.69A4.07,4.07,0,0,0,43.76,86.84Zm116.76-27a18.13,18.13,0,0,0-11.44,4L150.12,65H144l0.56-4a3.93,3.93,0,0,0,2.22.66,5.27,5.27,0,0,0,5-4.43,3.76,3.76,0,0,0-3.8-4.43,4.89,4.89,0,0,0-2.4.66l1.24-8.81h-7.63l-2.3,16.38h-0.1c-1.39-2.39-4.22-3.26-7.38-3.26-4.79,0-8.71,2.94-11,7a11.36,11.36,0,0,0-4.71-.93,16.14,16.14,0,0,0-11.19,4.38c0.07-2.55-.42-4.73-1.77-6.21a11.29,11.29,0,0,0,1.88.16A10.33,10.33,0,0,0,111,58.46h0.1l-0.44,3.1h7l1.17-8.36h5l5.4-38.46H121.6l-3.42,24.37c-1.47-1.9-4.07-2.88-8.23-2.88A18.88,18.88,0,0,0,101.89,38l2.94-2.69c-2-2.44-5.44-3.31-8.34-3.31A16.07,16.07,0,0,0,84.8,36.93l1.79-12.75H79l-1,7.32H73.86l1-7.33H67.26l-1,7.33H61.35l-0.86,6.1h4.88l-0.28,2a13.9,13.9,0,0,0-3.78-.51,16.63,16.63,0,0,0-6.92,1.49c1.06-8-.76-12.43-9.54-12.43a18.13,18.13,0,0,0-11.44,4l3.48,4.17a9.48,9.48,0,0,1,6.62-3c2.65,0,4.64,1.73,4.26,4.43-3.4,0-8,0-11.65,1.4l0-.23H29.45l1-7.33H22.84l-1,7.33H16.93L16.07,45H21L19.31,56.78c-0.76,5.39,2.87,7.48,8,7.48a16.74,16.74,0,0,0,5.45-.76l0.89-6.36a6,6,0,0,1-3.2.71c-3.31,0-3.34-1.93-3-4.58L28.59,45h1.54a9.82,9.82,0,0,0-.31,1.43c-0.7,5,3.1,7.63,7.73,7.63a10.33,10.33,0,0,0,8.36-3.71H46l-0.17,1.19c0,0.16-.06.33-0.08,0.49s0,0.33-.06.49l-0.13.93h0.06C45.32,60.55,50.51,65,57.67,65a15,15,0,0,0,6.81-1.62L61.4,85.31H69L70.76,73c0.45-3.2,1.5-6.31,5.46-6.31,3.51,0,2.89,3.71,2.63,5.55L77,85.31h7.29A9.11,9.11,0,0,0,79.21,91c-1.69-2.3-4.43-3.61-8-3.61a15.59,15.59,0,0,0-14.33,8.77L60.73,68.6H53.1l-5.4,38.46h7.63l0.35-2.47c1,5.44,5.69,8.77,11.86,8.77a15.59,15.59,0,0,0,11.12-4.88l-0.1-.08a14.73,14.73,0,0,0,7,1.55c5.29,0,11.65-1.83,12.54-8.14,1.32-9.41-12-6.31-11.47-10,0.21-1.48,1.81-2,3.08-2a4.67,4.67,0,0,1,4.13,2.09l5.33-4.63a7.39,7.39,0,0,0-2.44-1.95H100c2.11,2.85,5.71,4.49,10,4.49a15.59,15.59,0,0,0,11.12-4.88L116.4,81a7.66,7.66,0,0,1-5.86,3,4.81,4.81,0,0,1-5.08-4.78h12.24c1.73,2.83,4.84,4.53,9,4.53a11.25,11.25,0,0,0,8.12-3.87h0.1l-0.46,3.26H140L139,89.77h7.63l0.82-5.83a8.87,8.87,0,0,0,5.72,1.83A10.33,10.33,0,0,0,161.56,82h0.1l-0.44,3.1h7L170,72.59C171.17,64.34,169.41,59.82,160.51,59.82ZM46.86,44.28c-0.43,3.05-3.45,4.63-6.45,4.63-1.68,0-3.49-.86-3.23-2.7,0.47-3.36,5.69-3.56,8-3.56h1.88ZM112,52.36C111.52,55.41,108.5,57,105.5,57c-1.68,0-3.49-.86-3.23-2.7,0.47-3.36,5.69-3.56,8-3.56h1.88ZM69.7,92.91a3.89,3.89,0,0,1,4,4.68H63.65A6,6,0,0,1,69.7,92.91Zm6.63,13.67-2.47-2a7.66,7.66,0,0,1-5.86,3,4.81,4.81,0,0,1-5.08-4.78H80.28Zm14.06-4.21c-0.19,1.32-2,1.78-3.71,1.78a5.66,5.66,0,0,1-5-2.7l-1,.95,0.28-2a19.1,19.1,0,0,0,.19-2.33C84.62,100.36,90.77,99.64,90.39,102.36Zm4.27-31.45L92.8,84.15A17.89,17.89,0,0,0,90.48,84a14.78,14.78,0,0,0-5.81,1.15l1.81-12.91c0.43-3.05,1.9-5.55,5.41-5.55C94.39,66.69,95,68.62,94.66,70.91ZM95.08,60a9.42,9.42,0,0,0-8.46,4.43c-0.9-3-3.55-4.43-7-4.43a9.44,9.44,0,0,0-7.78,4h-0.1l0.47-3.36H66l-3.37-4.15a5.69,5.69,0,0,1-4,1.88c-3.82,0-5.75-2.54-5.22-6.26a6.84,6.84,0,0,1,7-6.26,4,4,0,0,1,3.5,1.88L64,47.6l-0.25,1.76c-0.76,5.39,2.87,7.48,8,7.48a16.74,16.74,0,0,0,5.45-.76L78,49.72a6,6,0,0,1-3.2.71c-3.31,0-3.34-1.93-3-4.58L73,37.61h4.07L75.49,48.9h5.45C81.8,54.53,86.56,58,92.85,58a15.38,15.38,0,0,0,2.31-.18,5.65,5.65,0,0,0,1.45,2.26A12,12,0,0,0,95.08,60Zm1.54-9.59a5.08,5.08,0,0,1-2.83.89C90,51.27,88,48.73,88.56,45a6.84,6.84,0,0,1,7-6.26,4.13,4.13,0,0,1,3.09,1.33l-0.14.11L102,44.37a9.48,9.48,0,0,1,6.62-3c2.65,0,4.64,1.73,4.26,4.43C107.77,45.85,100.09,45.95,96.61,50.38ZM116.18,74h-10a6,6,0,0,1,6.05-4.68,3.87,3.87,0,0,1,4,2.88A14.91,14.91,0,0,0,116.18,74Zm20-3.25a6.84,6.84,0,0,1-7,6.26c-3.82,0-5.75-2.54-5.22-6.26a6.84,6.84,0,0,1,7-6.26C134.77,64.52,136.7,67.06,136.18,70.78Zm26.34,5.17c-0.43,3.05-3.45,4.63-6.45,4.63-1.68,0-3.49-.86-3.23-2.7,0.47-3.36,5.69-3.56,8-3.56h1.88Zm0.92-6.51c-4.28,0-10.4.07-14.3,2.73l1-7.1,2.42,2.9a9.48,9.48,0,0,1,6.62-3C161.82,65,163.81,66.74,163.43,69.43ZM83.25,20.82a5.27,5.27,0,0,0,5-4.43A3.76,3.76,0,0,0,84.49,12a5.27,5.27,0,0,0-5,4.43A3.76,3.76,0,0,0,83.25,20.82Z"/><g class="cls-3"><g class="cls-4"><path class="cls-5" d="M37.21,47H30.49L29.32,55.2a12.61,12.61,0,0,0-.15,1.86,3.45,3.45,0,0,0,.28,1.45,1.93,1.93,0,0,0,1,.94,4.47,4.47,0,0,0,1.91.33,13.19,13.19,0,0,0,1.6-.13,3,3,0,0,0,1.55-.59l-0.86,6.36a12.43,12.43,0,0,1-2.72.61,25.13,25.13,0,0,1-2.72.15,14.05,14.05,0,0,1-3.51-.41A6.88,6.88,0,0,1,23,64.49a5,5,0,0,1-1.58-2.31,7.77,7.77,0,0,1-.23-3.46L22.86,47H18l0.86-6.1h4.88l1-7.33h7.63l-1,7.33h6.72Z"/></g><g class="cls-4"><path class="cls-5" d="M65.79,49.61a3.58,3.58,0,0,0-1.4-1.35,4.21,4.21,0,0,0-2.11-.53,6.61,6.61,0,0,0-4.73,1.73A7.5,7.5,0,0,0,55.31,54a5.73,5.73,0,0,0,.94,4.53,5,5,0,0,0,4.25,1.73,4.67,4.67,0,0,0,2.29-.56,7.84,7.84,0,0,0,1.78-1.32l4.27,5.29a12.09,12.09,0,0,1-4.58,2.57,16.55,16.55,0,0,1-4.68.74A14.52,14.52,0,0,1,54.34,66a10.57,10.57,0,0,1-4-2.62A10.32,10.32,0,0,1,48,59.33,12.28,12.28,0,0,1,47.68,54a14.34,14.34,0,0,1,1.81-5.34A15,15,0,0,1,53,44.55a15.34,15.34,0,0,1,4.73-2.62A16.67,16.67,0,0,1,63.19,41a14.82,14.82,0,0,1,4.5.74,8.1,8.1,0,0,1,3.84,2.57Z"/></g><g class="cls-4"><path class="cls-5" d="M30.08,93.19H25l0.86-6.1h5l0.61-4.38a24,24,0,0,1,.89-3.84,8.81,8.81,0,0,1,1.81-3.18,8.28,8.28,0,0,1,3.23-2.16,14.15,14.15,0,0,1,5.11-.79q1.17,0,2.29.1A14.17,14.17,0,0,1,47,73.2l-1.27,6.46a7.61,7.61,0,0,0-1.14-.38,5.45,5.45,0,0,0-1.25-.13,4.55,4.55,0,0,0-2.85.79,4.91,4.91,0,0,0-1.37,3.23l-0.56,3.92h5.65l-0.87,6.1H37.71l-2.59,18.62H27.49Z"/></g><g class="cls-4"><path class="cls-5" d="M41.38,92.12H49l-3.46,24.72H37.92Zm0.46-7.78a5.27,5.27,0,0,1,.61-1.73,5.12,5.12,0,0,1,1.14-1.4,5.76,5.76,0,0,1,1.55-.94,4.64,4.64,0,0,1,1.78-.36,3.63,3.63,0,0,1,2.93,1.3,3.82,3.82,0,0,1,.84,3.13,4.51,4.51,0,0,1-.56,1.73A5.1,5.1,0,0,1,49,87.46a5.73,5.73,0,0,1-1.55.94,4.63,4.63,0,0,1-1.78.36A3.91,3.91,0,0,1,44,88.41a3.75,3.75,0,0,1-1.27-.94,3.56,3.56,0,0,1-.74-1.4A4.49,4.49,0,0,1,41.84,84.34Z"/></g><g class="cls-4"><path class="cls-5" d="M143.4,85.06h-7l0.41-3.26h-0.1a8.42,8.42,0,0,1-1.35,1.35,11.21,11.21,0,0,1-1.91,1.25,12.17,12.17,0,0,1-2.31.92,9.15,9.15,0,0,1-2.52.36,11.83,11.83,0,0,1-4.86-.94,9.2,9.2,0,0,1-3.49-2.65,9.82,9.82,0,0,1-1.91-4,14,14,0,0,1-.13-5.14,16.88,16.88,0,0,1,1.48-5,16.4,16.4,0,0,1,2.82-4.2,13.35,13.35,0,0,1,3.94-2.93,11,11,0,0,1,4.88-1.09,12.48,12.48,0,0,1,4.37.74,5.59,5.59,0,0,1,3,2.52h0.1l2.34-16.38h7.63ZM138.1,72.7a5.68,5.68,0,0,0-1-4.53,5.13,5.13,0,0,0-4.27-1.73,6.61,6.61,0,0,0-4.73,1.73,7.5,7.5,0,0,0-2.24,4.53,5.73,5.73,0,0,0,.94,4.53A5,5,0,0,0,131.08,79a6.7,6.7,0,0,0,4.76-1.73A7.44,7.44,0,0,0,138.1,72.7Z"/></g><g class="cls-4"><path class="cls-5" d="M144.42,67H152l-3.46,24.72H141Zm0.46-7.78a5.27,5.27,0,0,1,.61-1.73,5.12,5.12,0,0,1,1.14-1.4,5.76,5.76,0,0,1,1.55-.94,4.64,4.64,0,0,1,1.78-.36,3.63,3.63,0,0,1,2.93,1.3,3.82,3.82,0,0,1,.84,3.13,4.51,4.51,0,0,1-.56,1.73,5.1,5.1,0,0,1-1.14,1.4,5.73,5.73,0,0,1-1.55.94,4.63,4.63,0,0,1-1.78.36,3.91,3.91,0,0,1-1.68-.36,3.75,3.75,0,0,1-1.27-.94,3.56,3.56,0,0,1-.74-1.4A4.49,4.49,0,0,1,144.88,59.19Z"/></g><g class="cls-4"><path class="cls-5" d="M80.54,110.4A14.6,14.6,0,0,1,75.43,114a15.11,15.11,0,0,1-6,1.27,14.52,14.52,0,0,1-5.24-.92,10.57,10.57,0,0,1-4-2.62,10.32,10.32,0,0,1-2.34-4.1,12.28,12.28,0,0,1-.33-5.34A14.34,14.34,0,0,1,59.35,97a15,15,0,0,1,3.48-4.1,15.34,15.34,0,0,1,4.73-2.62,16.67,16.67,0,0,1,5.49-.92,11.3,11.3,0,0,1,4.68.92A8.29,8.29,0,0,1,81,92.88,10.1,10.1,0,0,1,82.8,97a16,16,0,0,1,.08,5.34l-0.36,2.39H64.82a5.13,5.13,0,0,0,1.5,3.49,5,5,0,0,0,3.59,1.3,6.26,6.26,0,0,0,3.28-.84,11,11,0,0,0,2.57-2.16ZM75.61,99.51a4,4,0,0,0-.81-3.31,3.9,3.9,0,0,0-3.2-1.37,6.13,6.13,0,0,0-2.29.41,6.58,6.58,0,0,0-1.78,1,5.86,5.86,0,0,0-1.27,1.48,5.77,5.77,0,0,0-.71,1.76H75.61Z"/></g><g class="cls-4"><path class="cls-5" d="M95.76,93.81a4.65,4.65,0,0,0-4.17-2.09,4.48,4.48,0,0,0-1.93.46,1.92,1.92,0,0,0-1.12,1.58,1.17,1.17,0,0,0,.76,1.35,12,12,0,0,0,2.29.76l3,0.71a10,10,0,0,1,2.93,1.2A5.64,5.64,0,0,1,99.55,100a6.27,6.27,0,0,1,.43,3.74,7.59,7.59,0,0,1-1.58,3.94,10,10,0,0,1-3,2.49,13,13,0,0,1-3.84,1.32,22.62,22.62,0,0,1-4.07.38,18.37,18.37,0,0,1-5.14-.74,8.2,8.2,0,0,1-4.12-2.62l5.34-5.14a6.56,6.56,0,0,0,2.11,2,5.79,5.79,0,0,0,2.93.69,7.52,7.52,0,0,0,2.44-.38,1.7,1.7,0,0,0,1.27-1.4,1.3,1.3,0,0,0-.74-1.45,9.41,9.41,0,0,0-2.29-.81l-3-.71a11.24,11.24,0,0,1-3-1.14A5.39,5.39,0,0,1,81.21,98a5.91,5.91,0,0,1-.41-3.74,8.4,8.4,0,0,1,1.42-3.76A9.68,9.68,0,0,1,85,87.91a12,12,0,0,1,3.54-1.5,15.89,15.89,0,0,1,3.87-.48,16.86,16.86,0,0,1,4.83.71,7.63,7.63,0,0,1,3.87,2.54Z"/></g><g class="cls-4"><path class="cls-5" d="M163.56,84h-0.1a8.6,8.6,0,0,1-3.76,2.85,12.62,12.62,0,0,1-4.58.86,10.73,10.73,0,0,1-3.26-.48,7.15,7.15,0,0,1-2.62-1.45,5.67,5.67,0,0,1-1.6-2.39,7,7,0,0,1-.25-3.31,7.89,7.89,0,0,1,2.42-5,12.41,12.41,0,0,1,4.63-2.59,22.49,22.49,0,0,1,5.6-1q2.92-.15,5.32-0.15a3.57,3.57,0,0,0-1-3.23,4.57,4.57,0,0,0-3.26-1.2,8.11,8.11,0,0,0-3.54.79,11.66,11.66,0,0,0-3.08,2.16L151,65.71a16.5,16.5,0,0,1,5.37-3,19,19,0,0,1,6-1,14.59,14.59,0,0,1,5.42.84,6.58,6.58,0,0,1,3.13,2.47,8.3,8.3,0,0,1,1.25,4,25,25,0,0,1-.28,5.47l-1.73,12.57h-7Zm-0.81-7.73q-0.87,0-2.16.08a11.79,11.79,0,0,0-2.54.43,6.58,6.58,0,0,0-2.19,1.07,2.79,2.79,0,0,0-1.09,2,1.93,1.93,0,0,0,.15,1.2,2.56,2.56,0,0,0,.71.84,2.82,2.82,0,0,0,1.09.51,5.33,5.33,0,0,0,1.25.15,8.21,8.21,0,0,0,2.21-.31,7.48,7.48,0,0,0,2-.87,5.21,5.21,0,0,0,1.5-1.42,4.47,4.47,0,0,0,.76-2l0.2-1.63h-1.88Z"/></g><g class="cls-4"><path class="cls-5" d="M81.62,39.54H74.91l-1.17,8.24a12.61,12.61,0,0,0-.15,1.86,3.45,3.45,0,0,0,.28,1.45,1.93,1.93,0,0,0,1,.94,4.47,4.47,0,0,0,1.91.33,13.19,13.19,0,0,0,1.6-.13,3,3,0,0,0,1.55-.59L79,58a12.43,12.43,0,0,1-2.72.61,25.13,25.13,0,0,1-2.72.15,14.05,14.05,0,0,1-3.51-.41,6.88,6.88,0,0,1-2.67-1.3,5,5,0,0,1-1.58-2.31,7.77,7.77,0,0,1-.23-3.46l1.68-11.75H62.39l0.86-6.1h4.88l1-7.33h7.63l-1,7.33h6.72Z"/></g><g class="cls-4"><path class="cls-5" d="M80.87,26.11H88.5L85,50.83H77.41Zm0.46-7.78a5.27,5.27,0,0,1,.61-1.73,5.12,5.12,0,0,1,1.14-1.4,5.76,5.76,0,0,1,1.55-.94,4.64,4.64,0,0,1,1.78-.36,3.63,3.63,0,0,1,2.93,1.3,3.82,3.82,0,0,1,.84,3.13,4.51,4.51,0,0,1-.56,1.73,5.1,5.1,0,0,1-1.14,1.4,5.73,5.73,0,0,1-1.55.94,4.63,4.63,0,0,1-1.78.36,3.91,3.91,0,0,1-1.68-.36,3.75,3.75,0,0,1-1.27-.94,3.56,3.56,0,0,1-.74-1.4A4.49,4.49,0,0,1,81.33,18.33Z"/></g><g class="cls-4"><path class="cls-5" d="M101,42.57a3.58,3.58,0,0,0-1.4-1.35,4.21,4.21,0,0,0-2.11-.53,6.61,6.61,0,0,0-4.73,1.73,7.5,7.5,0,0,0-2.24,4.53,5.73,5.73,0,0,0,.94,4.53,5,5,0,0,0,4.25,1.73A4.67,4.67,0,0,0,98,52.64a7.84,7.84,0,0,0,1.78-1.32L104,56.61a12.09,12.09,0,0,1-4.58,2.57,16.55,16.55,0,0,1-4.68.74A14.52,14.52,0,0,1,89.52,59a10.57,10.57,0,0,1-4-2.62,10.32,10.32,0,0,1-2.34-4.1,12.28,12.28,0,0,1-.33-5.34,14.34,14.34,0,0,1,1.81-5.34,15,15,0,0,1,3.48-4.1,15.34,15.34,0,0,1,4.73-2.62A16.67,16.67,0,0,1,98.37,34a14.82,14.82,0,0,1,4.5.74,8.1,8.1,0,0,1,3.84,2.57Z"/></g><g class="cls-4"><path class="cls-5" d="M55,70.53h7.63L57.26,109H49.63Z"/></g><g class="cls-4"><path class="cls-5" d="M66.79,62.51h7.33l-0.46,3.36h0.1A7.62,7.62,0,0,1,75,64.45a9.52,9.52,0,0,1,1.73-1.27,9.87,9.87,0,0,1,2.19-.92,9.24,9.24,0,0,1,2.59-.36A8.92,8.92,0,0,1,86,63a5.4,5.4,0,0,1,2.54,3.36A9.34,9.34,0,0,1,97,61.9a8.64,8.64,0,0,1,4.07.84A5.78,5.78,0,0,1,103.42,65a8.19,8.19,0,0,1,1,3.41,19.76,19.76,0,0,1-.15,4.2l-2,14.6H94.56l2-14.4a5.3,5.3,0,0,0-.31-3,2.39,2.39,0,0,0-2.44-1.25,5.4,5.4,0,0,0-2.26.43,4.67,4.67,0,0,0-1.6,1.2,5.41,5.41,0,0,0-1,1.78,10.93,10.93,0,0,0-.51,2.14L86.58,87.24H78.95l1.83-13.07q0.1-.66.18-1.63a6.52,6.52,0,0,0-.1-1.83,2.86,2.86,0,0,0-.79-1.48,2.64,2.64,0,0,0-1.93-.61,5.16,5.16,0,0,0-2.47.53,4.5,4.5,0,0,0-1.6,1.42,6.6,6.6,0,0,0-.92,2,16.83,16.83,0,0,0-.46,2.34L71,87.24H63.33Z"/></g><g class="cls-4"><path class="cls-5" d="M47.9,52.31H47.8A8.6,8.6,0,0,1,44,55.16a12.62,12.62,0,0,1-4.58.86,10.73,10.73,0,0,1-3.26-.48,7.15,7.15,0,0,1-2.62-1.45A5.67,5.67,0,0,1,32,51.7a7,7,0,0,1-.25-3.31,7.89,7.89,0,0,1,2.42-5,12.41,12.41,0,0,1,4.63-2.59,22.49,22.49,0,0,1,5.6-1q2.92-.15,5.32-0.15a3.57,3.57,0,0,0-1-3.23,4.57,4.57,0,0,0-3.26-1.2,8.11,8.11,0,0,0-3.54.79,11.66,11.66,0,0,0-3.08,2.16L35.34,34a16.5,16.5,0,0,1,5.37-3,19,19,0,0,1,6-1,14.59,14.59,0,0,1,5.42.84,6.58,6.58,0,0,1,3.13,2.47,8.3,8.3,0,0,1,1.25,4,25,25,0,0,1-.28,5.47L54.52,55.41h-7Zm-0.81-7.73q-0.87,0-2.16.08a11.79,11.79,0,0,0-2.54.43,6.58,6.58,0,0,0-2.19,1.07,2.79,2.79,0,0,0-1.09,2,1.93,1.93,0,0,0,.15,1.2,2.56,2.56,0,0,0,.71.84,2.82,2.82,0,0,0,1.09.51,5.33,5.33,0,0,0,1.25.15,8.21,8.21,0,0,0,2.21-.31,7.48,7.48,0,0,0,2-.87A5.21,5.21,0,0,0,48,48.24a4.47,4.47,0,0,0,.76-2L49,44.58H47.09Z"/></g><g class="cls-4"><path class="cls-5" d="M123.52,16.67h7.63l-5.39,38.46h-7.63Z"/></g><g class="cls-4"><path class="cls-5" d="M113,60.39h-0.1a8.6,8.6,0,0,1-3.76,2.85,12.62,12.62,0,0,1-4.58.86,10.73,10.73,0,0,1-3.26-.48,7.15,7.15,0,0,1-2.62-1.45,5.67,5.67,0,0,1-1.6-2.39,7,7,0,0,1-.25-3.31,7.89,7.89,0,0,1,2.42-5,12.41,12.41,0,0,1,4.63-2.59,22.49,22.49,0,0,1,5.6-1q2.92-.15,5.32-0.15a3.57,3.57,0,0,0-1-3.23,4.57,4.57,0,0,0-3.26-1.2,8.11,8.11,0,0,0-3.54.79,11.66,11.66,0,0,0-3.08,2.16l-3.46-4.17a16.5,16.5,0,0,1,5.37-3,19,19,0,0,1,6-1,14.59,14.59,0,0,1,5.42.84,6.58,6.58,0,0,1,3.13,2.47,8.3,8.3,0,0,1,1.25,4,25,25,0,0,1-.28,5.47l-1.73,12.57h-7Zm-0.81-7.73q-0.87,0-2.16.08a11.79,11.79,0,0,0-2.54.43,6.58,6.58,0,0,0-2.19,1.07,2.79,2.79,0,0,0-1.09,2,1.93,1.93,0,0,0,.15,1.2,2.56,2.56,0,0,0,.71.84,2.82,2.82,0,0,0,1.09.51,5.33,5.33,0,0,0,1.25.15,8.21,8.21,0,0,0,2.21-.31,7.48,7.48,0,0,0,2-.87,5.21,5.21,0,0,0,1.5-1.42,4.47,4.47,0,0,0,.76-2l0.2-1.63h-1.88Z"/></g><g class="cls-4"><path class="cls-5" d="M123.08,86.84A14.6,14.6,0,0,1,118,90.46a15.11,15.11,0,0,1-6,1.27,14.52,14.52,0,0,1-5.24-.92,10.57,10.57,0,0,1-4-2.62,10.32,10.32,0,0,1-2.34-4.1,12.28,12.28,0,0,1-.33-5.34,14.34,14.34,0,0,1,1.81-5.34,15,15,0,0,1,3.48-4.1,15.34,15.34,0,0,1,4.73-2.62,16.67,16.67,0,0,1,5.49-.92,11.3,11.3,0,0,1,4.68.92,8.29,8.29,0,0,1,3.31,2.62,10.1,10.1,0,0,1,1.76,4.1,16,16,0,0,1,.08,5.34l-0.36,2.39h-17.7a5.13,5.13,0,0,0,1.5,3.49,5,5,0,0,0,3.59,1.3,6.26,6.26,0,0,0,3.28-.84,11,11,0,0,0,2.57-2.16ZM118.14,76a4,4,0,0,0-.81-3.31,3.9,3.9,0,0,0-3.2-1.37,6.13,6.13,0,0,0-2.29.41,6.58,6.58,0,0,0-1.78,1,5.86,5.86,0,0,0-1.27,1.48,5.77,5.77,0,0,0-.71,1.76h10.07Z"/></g></g><polygon class="cls-6" points="16.09 63.92 15.08 64.92 14.07 63.92 13.41 64.58 14.42 65.58 13.41 66.58 14.07 67.24 15.08 66.24 16.09 67.24 16.74 66.58 15.74 65.58 16.74 64.58 16.09 63.92"/><polygon class="cls-6" points="44.68 66.3 45.68 65.3 45.02 64.64 44.02 65.64 43.01 64.64 42.36 65.3 43.36 66.3 42.36 67.31 43.01 67.97 44.02 66.96 45.02 67.97 45.68 67.31 44.68 66.3"/><polygon class="cls-6" points="36.13 115.18 35.12 116.19 34.12 115.18 33.46 115.84 34.47 116.85 33.46 117.85 34.12 118.51 35.12 117.5 36.13 118.51 36.79 117.85 35.78 116.85 36.79 115.84 36.13 115.18"/><polygon class="cls-6" points="115.76 83.41 114.75 84.41 113.75 83.41 113.09 84.06 114.09 85.07 113.09 86.07 113.75 86.73 114.75 85.73 115.76 86.73 116.42 86.07 115.41 85.07 116.42 84.06 115.76 83.41"/><polygon class="cls-6" points="139.17 90.03 138.16 91.04 137.16 90.03 136.5 90.69 137.5 91.7 136.5 92.7 137.16 93.36 138.16 92.35 139.17 93.36 139.83 92.7 138.82 91.7 139.83 90.69 139.17 90.03"/><polygon class="cls-6" points="54.88 113.02 53.88 114.02 52.88 113.02 52.22 113.67 53.22 114.68 52.22 115.68 52.88 116.34 53.88 115.34 54.88 116.34 55.54 115.68 54.54 114.68 55.54 113.67 54.88 113.02"/><polygon class="cls-6" points="58.58 59.89 59.59 58.89 60.59 59.89 61.25 59.23 60.24 58.23 61.25 57.23 60.59 56.57 59.59 57.57 58.58 56.57 57.92 57.23 58.93 58.23 57.92 59.23 58.58 59.89"/><polygon class="cls-6" points="80.34 57.55 79.33 58.55 78.33 57.55 77.67 58.21 78.67 59.21 77.67 60.21 78.33 60.87 79.33 59.87 80.34 60.87 80.99 60.21 79.99 59.21 80.99 58.21 80.34 57.55"/><polygon class="cls-6" points="47.83 107.33 46.83 108.33 45.82 107.33 45.17 107.98 46.17 108.99 45.17 109.99 45.82 110.65 46.83 109.65 47.83 110.65 48.49 109.99 47.49 108.99 48.49 107.98 47.83 107.33"/><polygon class="cls-6" points="61.63 85.58 60.63 86.58 59.63 85.58 58.97 86.23 59.97 87.24 58.97 88.24 59.63 88.9 60.63 87.9 61.63 88.9 62.3 88.24 61.29 87.24 62.3 86.23 61.63 85.58"/><polygon class="cls-6" points="96.04 64.5 95.03 63.49 96.04 62.49 95.38 61.83 94.38 62.84 93.37 61.83 92.71 62.49 93.72 63.49 92.71 64.5 93.37 65.16 94.38 64.15 95.38 65.16 96.04 64.5"/><polygon class="cls-6" points="97.42 89.46 96.42 90.46 95.42 89.46 94.76 90.12 95.76 91.12 94.76 92.12 95.42 92.78 96.42 91.78 97.42 92.78 98.08 92.12 97.08 91.12 98.08 90.12 97.42 89.46"/><polygon class="cls-6" points="30.29 53.75 29.29 54.75 28.28 53.75 27.62 54.41 28.63 55.41 27.62 56.42 28.28 57.07 29.29 56.07 30.29 57.07 30.95 56.42 29.95 55.41 30.95 54.41 30.29 53.75"/><polygon class="cls-6" points="146.6 86.46 145.94 85.8 144.94 86.81 143.94 85.8 143.28 86.46 144.28 87.46 143.28 88.47 143.94 89.13 144.94 88.12 145.94 89.13 146.6 88.47 145.6 87.46 146.6 86.46"/><polygon class="cls-6" points="114.44 56.8 115.44 55.79 116.45 56.8 117.11 56.14 116.1 55.13 117.11 54.13 116.45 53.47 115.44 54.48 114.44 53.47 113.78 54.13 114.78 55.13 113.78 56.14 114.44 56.8"/><polygon class="cls-6" points="75.63 52.5 76.29 51.84 75.29 50.84 76.29 49.83 75.63 49.17 74.63 50.18 73.62 49.17 72.96 49.83 73.97 50.84 72.96 51.84 73.62 52.5 74.63 51.49 75.63 52.5"/><polygon class="cls-6" points="77.67 109.71 76.65 110.7 75.67 109.68 75 110.33 75.99 111.35 74.97 112.34 75.62 113.01 76.64 112.02 77.62 113.04 78.29 112.39 77.3 111.37 78.32 110.38 77.67 109.71"/><polygon class="cls-6" points="23.15 110.15 22.15 111.15 21.14 110.15 20.48 110.81 21.49 111.81 20.48 112.81 21.14 113.47 22.15 112.47 23.15 113.47 23.81 112.81 22.8 111.81 23.81 110.81 23.15 110.15"/></g></g></svg>